<svg width="32" height="24" viewBox="0 0 91 74" fill="currentColor" xmlns="http://www.w3.org/2000/svg" class="css-yeuc31"><path d="M25.0784 2.14997L24.4403 1.75457L23.8825 2.2569C17.4026 8.09221 11.9594 15.7887 7.53634 25.3145L7.5348 25.3178C3.19313 34.7591 1 43.7142 1 52.1724V72V73H2H30.3755H31.3755V72V49.9353C31.6212 37.7955 35.2379 25.8049 42.2637 13.9524L42.7637 13.109L41.9302 12.5925L25.0784 2.14997ZM71.6749 2.14997L71.0368 1.75457L70.479 2.2569C63.9991 8.09221 58.5559 15.7887 54.1328 25.3145L54.1313 25.3178C49.7896 34.7591 47.5965 43.7142 47.5965 52.1724V72V73H48.5965H76.972H77.972V72V49.9355C78.2177 37.7956 81.8344 25.8049 88.8602 13.9524L89.3602 13.109L88.5267 12.5925L71.6749 2.14997Z" stroke="#202024" stroke-width="2" fill="currentColor"></path></svg>