<svg width="100%" height="100%" viewBox="0 0 200 56" fill="none" xmlns="http://www.w3.org/2000/svg" class="css-1moa7u2"><path fill-rule="evenodd" clip-rule="evenodd" d="M25.598 29.33L25.598 19.6258L0.0530178 29.5981H5.19667e-09L1.03854e-08 39.5553H0.0530178L25.598 49.5276L25.598 39.8082L12.5026 34.5565L25.598 29.33Z" fill="#8257E6"></path><path fill-rule="evenodd" clip-rule="evenodd" d="M174.426 49.0178L174.426 39.3137L187.512 34.0922L174.426 28.8708L174.426 19.1667L199.937 29.1339H200L200 39.1012H199.937L174.426 49.0178ZM163.471 5.44525L148.467 56H157.374L172.378 5.44525L163.471 5.44525Z" fill="#8257E6"></path><path fill-rule="evenodd" clip-rule="evenodd" d="M63.1366 17.7884C65.6708 20.7134 67.0043 24.5693 66.8479 28.5197L66.8479 50.053H57.9409L57.9409 30.4979C58.0445 28.3195 57.3825 26.1769 56.0804 24.4771C55.4702 23.7313 54.707 23.1404 53.848 22.7486C52.989 22.3569 52.0566 22.1747 51.1209 22.2155C45.5427 22.2155 42.7537 26.2766 42.7537 34.3988L42.7537 50.053H33.8467L33.8467 14.7021H42.7537L42.7537 17.8947C44.1528 16.4667 45.8149 15.3537 47.6382 14.6237C49.4615 13.8938 51.4076 13.5624 53.3572 13.6497C55.174 13.5691 56.9863 13.8966 58.6728 14.6103C60.3593 15.324 61.8811 16.4076 63.1366 17.7884Z" fill="#E1E1E6"></path><path fill-rule="evenodd" clip-rule="evenodd" d="M78.1895 0L78.1895 50.5548H87.0965L87.0965 0L78.1895 0Z" fill="#E1E1E6"></path><path fill-rule="evenodd" clip-rule="evenodd" d="M137.435 48.6993H130.003L122.716 27.8743L115.361 48.6993H107.938L95.4502 13.2827L104.969 13.2827L111.987 34.4618L119.217 13.2827L126.167 13.2827L133.397 34.5327L140.414 13.2827H149.933L137.435 48.6993Z" fill="#E1E1E6"></path></svg>